<svg width="175" height="90" fill="none" xmlns="http://www.w3.org/2000/svg"><rect x=".5" y=".5" width="174" height="89" rx="3.5" stroke="#AFB1B8"/><path d="M87.74 43.688a3.085 3.085 0 01-.57-1.993v-2.89c0-.885.189-1.558.567-2.019.378-.46 1.028-.69 1.949-.688.865 0 1.48.196 1.843.588.396.5.589 1.112.544 1.729v.679h-1.547v-.688c.005-.225-.01-.45-.045-.673a.662.662 0 00-.221-.4.856.856 0 00-.561-.156.906.906 0 00-.59.165.779.779 0 00-.256.44 3.555 3.555 0 00-.061.715v3.507c-.025.338.043.677.198.985a.731.731 0 00.31.239.804.804 0 00.399.055.806.806 0 00.548-.159.717.717 0 00.23-.426c.037-.233.053-.468.048-.703v-.711h1.548v.65a2.76 2.76 0 01-.535 1.816c-.355.43-.961.644-1.852.644-.891 0-1.564-.23-1.946-.706zM94.186 43.718c-.391-.45-.587-1.105-.587-1.973v-3.04c0-.858.196-1.507.587-1.948.39-.441 1.044-.66 1.961-.659.91 0 1.56.22 1.952.659.39.44.59 1.09.59 1.949v3.04c0 .858-.2 1.516-.597 1.969-.397.453-1.044.679-1.945.679-.9 0-1.567-.23-1.961-.676zm2.682-.73c.14-.28.204-.59.186-.899v-3.721a1.738 1.738 0 00-.183-.882.735.735 0 00-.316-.243.808.808 0 00-.408-.051.82.82 0 00-.41.052.746.746 0 00-.317.242 1.7 1.7 0 00-.186.882v3.739c-.02.31.044.618.186.9a.96.96 0 00.326.222 1.035 1.035 0 00.796 0 .96.96 0 00.326-.222v-.018zM100.551 36.187h1.666l1.253 5.608 1.282-5.608h1.622l.163 8.095h-1.198l-.128-5.626-1.238 5.626h-.961l-1.282-5.647-.119 5.647H100.4l.151-8.095zM108.406 36.187h2.596c1.496 0 2.243.766 2.243 2.298 0 1.468-.787 2.2-2.362 2.199h-.884v3.598h-1.603l.01-8.095zm2.218 3.46c.158.018.319.005.471-.04a1.13 1.13 0 00.41-.216c.184-.274.265-.595.231-.914a2.679 2.679 0 00-.077-.735.609.609 0 00-.118-.222.675.675 0 00-.202-.163 1.577 1.577 0 00-.715-.13h-.622v2.42h.622zM115.556 36.187h1.721l1.766 8.095h-1.494l-.349-1.867h-1.535l-.359 1.867h-1.516l1.766-8.095zm1.471 5.29l-.599-3.397-.6 3.398h1.199zM120.469 36.187h1.122l2.147 4.617v-4.617h1.33v8.095h-1.067l-2.16-4.82v4.82h-1.375l.003-8.095zM128.184 41.195l-1.786-4.996h1.504l1.089 3.21 1.023-3.21h1.471l-1.763 4.996v3.087h-1.538v-3.087zM90.215 47.821v.424h-1.308v3.289h-.548v-3.29h-1.314v-.423h3.17zM94.314 51.534h-.423a.18.18 0 01-.119-.035.19.19 0 01-.07-.085l-.378-.882H91.51l-.378.882a.248.248 0 01-.058.1.187.187 0 01-.119.035h-.423l1.603-3.713h.557l1.622 3.698zm-2.654-1.378h1.513l-.64-1.511a2.812 2.812 0 01-.12-.35l-.06.197-.058.156-.635 1.508zM97.077 51.17c.1.004.2.004.3 0 .088-.009.173-.023.257-.045.079-.017.156-.04.231-.067.07-.027.141-.06.215-.091v-.835h-.641a.117.117 0 01-.11-.06.079.079 0 01-.009-.037v-.285h1.244v1.422a2.375 2.375 0 01-1.077.38 4.569 4.569 0 01-.468.023 2.316 2.316 0 01-.808-.138 1.946 1.946 0 01-.64-.388 1.79 1.79 0 01-.414-.588 1.956 1.956 0 01-.147-.77 2.03 2.03 0 01.144-.776c.092-.22.233-.42.413-.588a1.92 1.92 0 01.641-.385c.275-.095.566-.142.859-.139.15 0 .298.011.446.033.13.02.258.05.38.094.113.038.22.088.321.147.099.058.192.123.28.194l-.155.23a.138.138 0 01-.052.05.154.154 0 01-.073.02.202.202 0 01-.099-.03 1.946 1.946 0 01-.157-.088 1.384 1.384 0 00-.215-.1 1.931 1.931 0 00-.295-.082 2.319 2.319 0 00-.407-.032 1.793 1.793 0 00-.618.102 1.341 1.341 0 00-.471.294c-.133.134-.235.29-.298.462a1.838 1.838 0 000 1.237c.07.175.179.334.32.468.132.127.291.227.468.294.204.064.42.09.635.073zM102.185 51.11h1.75v.424h-2.285V47.82h.548l-.013 3.29zM105.756 51.534h-.548V47.82h.548v3.713zM107.794 47.839c.032.017.061.04.083.067l2.343 2.799a.974.974 0 010-.132v-2.767h.478v3.728h-.276a.248.248 0 01-.119-.02.315.315 0 01-.086-.071l-2.34-2.796v2.887h-.458v-3.713h.285a.24.24 0 01.09.018zM114.732 47.821v.409h-1.942v1.226h1.574v.394h-1.574v1.267h1.942v.408h-2.506v-3.704h2.506zM57.303 24.893l24.335 6.338v22.208l-24.335-6.335v-22.21zM55.743 23v25.183l27.453 7.152v-25.18L55.743 23z" fill="#AFB1B8"/><path d="M70.457 67.025L43 59.867v-25.18l27.457 7.155v25.183z" fill="#AFB1B8"/><path d="M56.198 24.608l24.018 6.258L70 40.237l-24.02-6.26 10.217-9.37zM55.743 23L43 34.688l27.457 7.154 12.739-11.687L55.743 23zM72.001 65.608l11.195-10.27-11.195-2.919v13.19z" fill="#AFB1B8"/></svg>