<svg width="175" height="90" fill="none" xmlns="http://www.w3.org/2000/svg"><rect x=".5" y=".5" width="174" height="89" rx="3.5" stroke="#AFB1B8"/><path d="M69.345 64.493a.114.114 0 01.08.033l.206.209c-.16.169-.357.304-.579.396-.26.1-.539.15-.82.143a2.068 2.068 0 01-.772-.133 1.678 1.678 0 01-.581-.375 1.685 1.685 0 01-.376-.58 2.037 2.037 0 01-.131-.743 1.901 1.901 0 01.141-.745c.09-.216.226-.413.4-.58a1.84 1.84 0 01.617-.377 2.29 2.29 0 01.794-.133c.253-.006.504.035.739.12.203.082.39.196.552.336l-.172.223a.172.172 0 01-.044.04.112.112 0 01-.069.017.16.16 0 01-.075-.024l-.092-.06-.129-.075a1.418 1.418 0 00-.406-.133 1.687 1.687 0 00-.306-.024 1.573 1.573 0 00-.571.1 1.297 1.297 0 00-.448.28c-.128.13-.227.281-.29.446a1.583 1.583 0 00-.106.59c-.003.203.033.405.106.597.062.164.16.315.285.445.118.12.264.214.427.275.168.064.348.097.53.095.105.001.21-.005.314-.02.17-.018.332-.073.475-.158.073-.044.14-.093.204-.147a.156.156 0 01.097-.038zM75.287 63.443c.003.252-.044.502-.139.738a1.6 1.6 0 01-.387.573 1.762 1.762 0 01-.608.377 2.365 2.365 0 01-1.564 0 1.684 1.684 0 01-.995-.957 2.037 2.037 0 010-1.48c.087-.215.22-.413.39-.58a1.79 1.79 0 01.605-.364c.503-.18 1.06-.18 1.564 0 .228.086.435.214.607.377.17.165.301.36.388.573.096.237.143.49.14.743zm-.54 0a1.655 1.655 0 00-.098-.594 1.23 1.23 0 00-.275-.444 1.212 1.212 0 00-.435-.28c-.366-.13-.77-.13-1.137 0a1.202 1.202 0 00-.712.724c-.13.387-.13.8 0 1.187.058.165.153.316.278.444.12.122.269.216.434.278.367.127.77.127 1.137 0 .166-.061.314-.156.435-.278.123-.129.217-.28.275-.444.07-.19.102-.392.098-.593zM79.34 64.065l.055.133c.02-.047.038-.09.059-.133.02-.044.042-.088.067-.13l1.314-2.206c.026-.038.049-.062.075-.069a.33.33 0 01.108-.012h.388v3.588h-.46v-2.638-.112a1.018 1.018 0 010-.123l-1.322 2.236a.198.198 0 01-.078.082.222.222 0 01-.113.03h-.074c-.04 0-.08-.01-.113-.03a.196.196 0 01-.078-.082l-1.36-2.25v2.879h-.445v-3.58h.388a.33.33 0 01.108.012.148.148 0 01.072.069l1.343 2.208a.77.77 0 01.067.128zM84.287 63.887v1.344h-.514v-3.583h1.147c.216-.004.432.023.64.079.167.043.321.12.453.223a.918.918 0 01.257.351c.061.146.09.302.088.458a1.08 1.08 0 01-.096.459.982.982 0 01-.277.358 1.284 1.284 0 01-.456.237c-.2.06-.41.088-.62.084l-.622-.01zm0-.385h.623c.135.002.27-.016.398-.054a.852.852 0 00.288-.154.633.633 0 00.175-.238.723.723 0 00.062-.301.638.638 0 00-.052-.292.686.686 0 00-.18-.245 1.057 1.057 0 00-.691-.192h-.623v1.476zM91.201 65.236h-.406a.185.185 0 01-.114-.034.22.22 0 01-.066-.083l-.35-.867h-1.757l-.363.867a.194.194 0 01-.064.08.185.185 0 01-.116.037h-.406l1.543-3.588h.535l1.564 3.587zm-2.546-1.333h1.45l-.612-1.46a2.466 2.466 0 01-.116-.337l-.059.188c-.018.057-.038.109-.056.152l-.607 1.458zM93.423 61.665c.031.015.058.037.078.064l2.25 2.704v-.126-2.659h.46v3.587h-.257a.236.236 0 01-.105-.02.282.282 0 01-.082-.067l-2.248-2.702c.002.04.002.082 0 .123v2.666h-.46v-3.587h.272c.032 0 .063.005.092.017zM100.003 63.809v1.424h-.515v-1.425l-1.422-2.16h.46a.177.177 0 01.11.03c.029.024.052.051.07.081l.89 1.394a1.466 1.466 0 01.157.318l.067-.154a1.27 1.27 0 01.088-.164l.877-1.403a.354.354 0 01.067-.076.164.164 0 01.11-.036h.466l-1.425 2.17zM79.086 55.627c.224.026.45.048.68.067 3.47-1.433 6.406-3.779 8.44-6.744 2.035-2.965 3.077-6.417 2.998-9.926l-3.825-3.53a19.02 19.02 0 01-1.05 11.153c-1.465 3.556-3.973 6.665-7.243 8.98z" fill="#AFB1B8"/><path d="M77.72 55.463l.103.02c3.495-2.308 6.159-5.53 7.648-9.25a18.377 18.377 0 00.707-11.615l-5.448-5.029c2.203 4.133 3.09 8.76 2.558 13.34-.533 4.58-2.464 8.927-5.567 12.534zM96.196 43.17c-.925 3.855-3.173 7.332-6.41 9.914a20.25 20.25 0 01-3.045 2.018c2.635-.714 5.058-1.978 7.08-3.694 2.022-1.716 3.59-3.837 4.585-6.201l-2.21-2.037z" fill="#AFB1B8"/><path d="M95.33 42.602L92.182 39.7c-.06 3.31-1.08 6.545-2.952 9.369-1.873 2.824-4.532 5.133-7.699 6.687h.016c.705 0 1.41-.039 2.111-.116 2.96-1.115 5.575-2.89 7.611-5.164 2.036-2.275 3.43-4.98 4.06-7.873zM78.176 27.469L74.423 24c-3.355 1.197-6.24 3.3-8.278 6.036C64.107 32.77 63.01 36.01 63 39.33c.013 3.669 1.35 7.229 3.801 10.116 2.451 2.888 5.875 4.938 9.731 5.827 3.442-3.87 5.457-8.653 5.753-13.654.295-5-1.144-9.957-4.11-14.15zM104 42.068c-.014-4.353-1.893-8.523-5.227-11.6-3.334-3.078-7.852-4.813-12.567-4.825-2.179-.002-4.34.369-6.371 1.094l22.977 21.21a15.169 15.169 0 001.188-5.88z" fill="#AFB1B8"/></svg>